<svg xmlns="http://www.w3.org/2000/svg" xmlns:xlink="http://www.w3.org/1999/xlink" width="500" zoomAndPan="magnify" viewBox="0 0 375 374.999991" height="500" preserveAspectRatio="xMidYMid meet" version="1.0"><defs><g/><clipPath id="a1604c9704"><path d="M 56.488281 151.464844 L 264.238281 151.464844 L 264.238281 223.464844 L 56.488281 223.464844 Z M 56.488281 151.464844 " clip-rule="nonzero"/></clipPath><clipPath id="33fc873796"><path d="M 63.558594 158.238281 L 187.332031 158.238281 L 187.332031 216.761719 L 63.558594 216.761719 Z M 63.558594 158.238281 " clip-rule="nonzero"/></clipPath></defs><rect x="-37.5" width="450" fill="#ffffff" y="-37.499999" height="449.999989" fill-opacity="1"/><rect x="-37.5" width="450" fill="#ffffff" y="-37.499999" height="449.999989" fill-opacity="1"/><rect x="-37.5" width="450" fill="#ffffff" y="-37.499999" height="449.999989" fill-opacity="1"/><g clip-path="url(#a1604c9704)"><path stroke-linecap="butt" transform="matrix(0.749028, 0, 0, 0.749268, 56.489269, 151.465639)" fill="none" stroke-linejoin="miter" d="M -0.00131843 -0.00106117 L 277.358095 -0.00106117 L 277.358095 96.092699 L -0.00131843 96.092699 L -0.00131843 -0.00106117 " stroke="#000000" stroke-width="6" stroke-opacity="1" stroke-miterlimit="4"/></g><g clip-path="url(#33fc873796)"><path fill="#000000" d="M 63.558594 158.238281 L 188.035156 158.238281 L 188.035156 217.363281 L 63.558594 217.363281 Z M 63.558594 158.238281 " fill-opacity="1" fill-rule="nonzero"/></g><g fill="#ffffff" fill-opacity="1"><g transform="translate(73.870232, 193.874987)"><g><path d="M 1.601562 0 L 7.882812 0 C 10.59375 0 12.425781 -1.488281 12.425781 -3.742188 C 12.425781 -5.171875 11.679688 -6.316406 10.421875 -6.871094 C 11.433594 -7.464844 12.023438 -8.511719 12.023438 -9.773438 C 12.023438 -11.96875 10.289062 -13.359375 7.578125 -13.359375 L 1.601562 -13.359375 Z M 4.601562 -2.40625 L 4.601562 -5.613281 L 7.425781 -5.613281 C 8.628906 -5.613281 9.316406 -5.019531 9.316406 -4.007812 C 9.316406 -2.996094 8.628906 -2.40625 7.425781 -2.40625 Z M 4.601562 -7.921875 L 4.601562 -10.957031 L 7.121094 -10.957031 C 8.285156 -10.957031 8.933594 -10.421875 8.933594 -9.449219 C 8.933594 -8.476562 8.285156 -7.921875 7.121094 -7.921875 Z M 4.601562 -7.921875 "/></g></g></g><g fill="#ffffff" fill-opacity="1"><g transform="translate(88.465924, 193.874987)"><g><path d="M 1.601562 0 L 10.480469 0 L 10.480469 -2.84375 L 4.636719 -2.84375 L 4.636719 -13.359375 L 1.601562 -13.359375 Z M 1.601562 0 "/></g></g></g><g fill="#ffffff" fill-opacity="1"><g transform="translate(100.905779, 193.874987)"><g><path d="M 7.941406 0.265625 C 12.121094 0.265625 15.078125 -2.597656 15.078125 -6.679688 C 15.078125 -10.765625 12.121094 -13.628906 7.941406 -13.628906 C 3.761719 -13.628906 0.820312 -10.765625 0.820312 -6.679688 C 0.820312 -2.597656 3.761719 0.265625 7.941406 0.265625 Z M 3.914062 -6.679688 C 3.914062 -9.085938 5.574219 -10.746094 7.941406 -10.746094 C 10.328125 -10.746094 11.96875 -9.085938 11.96875 -6.679688 C 11.96875 -4.277344 10.328125 -2.613281 7.941406 -2.613281 C 5.574219 -2.613281 3.914062 -4.277344 3.914062 -6.679688 Z M 3.914062 -6.679688 "/></g></g></g><g fill="#ffffff" fill-opacity="1"><g transform="translate(118.24873, 193.874987)"><g><path d="M 1.601562 0 L 4.621094 0 L 4.621094 -8.1875 L 10.515625 0 L 13.09375 0 L 13.09375 -13.359375 L 10.078125 -13.359375 L 10.078125 -5.230469 L 4.179688 -13.359375 L 1.601562 -13.359375 Z M 1.601562 0 "/></g></g></g><g fill="#ffffff" fill-opacity="1"><g transform="translate(134.38975, 193.874987)"><g><path d="M 1.601562 0 L 6.890625 0 C 11.109375 0 13.933594 -2.691406 13.933594 -6.679688 C 13.933594 -10.652344 11.109375 -13.359375 6.890625 -13.359375 L 1.601562 -13.359375 Z M 4.636719 -2.785156 L 4.636719 -10.574219 L 6.796875 -10.574219 C 9.199219 -10.574219 10.824219 -9.027344 10.824219 -6.679688 C 10.824219 -4.332031 9.199219 -2.785156 6.832031 -2.785156 Z M 4.636719 -2.785156 "/></g></g></g><g fill="#ffffff" fill-opacity="1"><g transform="translate(150.568925, 193.874987)"><g><path d="M 1.601562 0 L 10.59375 0 L 10.59375 -2.578125 L 4.621094 -2.578125 L 4.621094 -5.496094 L 9.867188 -5.496094 L 9.867188 -8.035156 L 4.621094 -8.035156 L 4.621094 -10.804688 L 10.382812 -10.804688 L 10.382812 -13.359375 L 1.601562 -13.359375 Z M 1.601562 0 "/></g></g></g><g fill="#ffffff" fill-opacity="1"><g transform="translate(163.58112, 193.874987)"><g><path d="M 1.601562 0 L 4.636719 0 L 4.636719 -4.160156 L 6.640625 -4.160156 L 9.027344 0 L 12.539062 0 L 9.773438 -4.636719 C 11.375 -5.34375 12.3125 -6.796875 12.3125 -8.761719 C 12.3125 -11.605469 10.363281 -13.359375 7.308594 -13.359375 L 1.601562 -13.359375 Z M 4.601562 -6.71875 L 4.601562 -10.765625 L 6.910156 -10.765625 C 8.398438 -10.765625 9.238281 -10.039062 9.238281 -8.742188 C 9.238281 -7.445312 8.398438 -6.71875 6.910156 -6.71875 Z M 4.601562 -6.71875 "/></g></g></g><g fill="#000000" fill-opacity="1"><g transform="translate(189.651114, 193.876012)"><g><path d="M 4.601562 0 L 8.441406 0 L 8.441406 -9.796875 L 12.507812 -9.796875 L 12.507812 -13.367188 L 0.535156 -13.367188 L 0.535156 -9.796875 L 4.601562 -9.796875 Z M 4.601562 0 "/></g></g></g><g fill="#000000" fill-opacity="1"><g transform="translate(202.689458, 193.876012)"><g><path d="M 9.394531 0 L 13.25 0 L 13.25 -13.367188 L 9.394531 -13.367188 L 9.394531 -8.574219 L 5.269531 -8.574219 L 5.269531 -13.367188 L 1.414062 -13.367188 L 1.414062 0 L 5.269531 0 L 5.269531 -5.023438 L 9.394531 -5.023438 Z M 9.394531 0 "/></g></g></g><g fill="#000000" fill-opacity="1"><g transform="translate(217.350438, 193.876012)"><g><path d="M 1.414062 0 L 10.789062 0 L 10.789062 -3.152344 L 5.230469 -3.152344 L 5.230469 -5.214844 L 10.0625 -5.214844 L 10.0625 -8.304688 L 5.230469 -8.304688 L 5.230469 -10.253906 L 10.578125 -10.253906 L 10.578125 -13.367188 L 1.414062 -13.367188 Z M 1.414062 0 "/></g></g></g><g fill="#000000" fill-opacity="1"><g transform="translate(228.995224, 193.876012)"><g><path d="M 1.414062 0 L 5.230469 0 L 5.230469 -6.777344 L 7.808594 -3.167969 L 10.3125 -3.167969 L 12.871094 -6.757812 L 12.871094 0 L 16.6875 0 L 16.6875 -13.367188 L 13.558594 -13.367188 L 9.050781 -7.007812 L 4.5625 -13.367188 L 1.414062 -13.367188 Z M 1.414062 0 "/></g></g></g><g fill="#000000" fill-opacity="1"><g transform="translate(247.092372, 193.876012)"><g><path d="M 1.414062 0 L 10.789062 0 L 10.789062 -3.152344 L 5.230469 -3.152344 L 5.230469 -5.214844 L 10.0625 -5.214844 L 10.0625 -8.304688 L 5.230469 -8.304688 L 5.230469 -10.253906 L 10.578125 -10.253906 L 10.578125 -13.367188 L 1.414062 -13.367188 Z M 1.414062 0 "/></g></g></g></svg>